HIERARCHY
ROOT Hips
{
	OFFSET 0.000000 0.000000 0.000000
	CHANNELS 6 Xposition Yposition Zposition Zrotation Yrotation Xrotation 
	JOINT LowerBack
	{
		OFFSET 0.000000 0.000000 0.000000
		CHANNELS 3 Zrotation Yrotation Xrotation
		JOINT Spine
		{
			OFFSET 0.028270 2.035590 -0.193380
			CHANNELS 3 Zrotation Yrotation Xrotation
			JOINT Spine1
			{
				OFFSET 0.056720 2.048850 -0.042750
				CHANNELS 3 Zrotation Yrotation Xrotation
				JOINT Neck
				{
					OFFSET 0.000000 0.000000 0.000000
					CHANNELS 3 Zrotation Yrotation Xrotation
					JOINT Neck1
					{
						OFFSET -0.054170 1.746240 0.172020
						CHANNELS 3 Zrotation Yrotation Xrotation
						JOINT Head
						{
							OFFSET 0.104070 1.761360 -0.123970
							CHANNELS 3 Zrotation Yrotation Xrotation
							End Site
							{
								OFFSET 0.000000 0.000000 0.000000
							}
						}
					}
				}
				JOINT LeftShoulder
				{
					OFFSET 0.000000 0.000000 0.000000
					CHANNELS 3 Zrotation Yrotation Xrotation
					JOINT LeftArm
					{
						OFFSET 3.362410 1.200890 -0.311210
						CHANNELS 3 Zrotation Yrotation Xrotation
						JOINT LeftForeArm
						{
							OFFSET 4.983000 -0.000000 -0.000000
							CHANNELS 3 Zrotation Yrotation Xrotation
							JOINT LeftHand
							{
								OFFSET 3.483560 -0.000000 -0.000000
								CHANNELS 3 Zrotation Yrotation Xrotation
								JOINT LeftFingerBase
								{
									OFFSET 0.000000 0.000000 0.000000
									CHANNELS 3 Zrotation Yrotation Xrotation
									JOINT LeftHandIndex1
									{
										OFFSET 0.715260 -0.000000 -0.000000
										CHANNELS 3 Zrotation Yrotation Xrotation
										End Site
										{
											OFFSET 0.000000 0.000000 0.000000
										}
									}
								}
								JOINT LThumb
								{
									OFFSET 0.000000 0.000000 0.000000
									CHANNELS 3 Zrotation Yrotation Xrotation
									End Site
									{
										OFFSET 0.000000 0.000000 0.000000
									}
								}
							}
						}
					}
				}
				JOINT RightShoulder
				{
					OFFSET 0.000000 0.000000 0.000000
					CHANNELS 3 Zrotation Yrotation Xrotation
					JOINT RightArm
					{
						OFFSET -3.136600 1.374050 -0.404650
						CHANNELS 3 Zrotation Yrotation Xrotation
						JOINT RightForeArm
						{
							OFFSET -5.241900 -0.000000 -0.000000
							CHANNELS 3 Zrotation Yrotation Xrotation
							JOINT RightHand
							{
								OFFSET -3.444170 -0.000000 -0.000000
								CHANNELS 3 Zrotation Yrotation Xrotation
								JOINT RightFingerBase
								{
									OFFSET 0.000000 0.000000 0.000000
									CHANNELS 3 Zrotation Yrotation Xrotation
									JOINT RightHandIndex1
									{
										OFFSET -0.622530 -0.000000 -0.000000
										CHANNELS 3 Zrotation Yrotation Xrotation
										End Site
										{
											OFFSET 0.000000 0.000000 0.000000
										}
									}
								}
								JOINT RThumb
								{
									OFFSET 0.000000 0.000000 0.000000
									CHANNELS 3 Zrotation Yrotation Xrotation
									End Site
									{
										OFFSET 0.000000 0.000000 0.000000
									}
								}
							}
						}
					}
				}
			}
		}
	}
}
}
MOTION
Frames: 18
Frame Time: 0.008333
1.752325 16.605266 -2.013579 -152.376266 85.234870 -133.199261 7.900487 -3.293256 3.022626 0.448498 -3.752971 -1.724546 -8.144435 -3.674683 2.447289 10.047928 -7.822675 -5.762497 -4.223368 -0.324499 0.330670 0.000000 0.000000 0.000000 0.507676 6.827018 2.753016 -29.625395 -10.074903 4.003906 -1.565891 -68.337846 0.026749 -9.935150 0.330260 -0.015177 -0.014111 0.147265 0.000000 0.000000 0.000000 0.000000 0.000000 0.000000 0.000000 19.418552 -7.718814 0.628194 64.617901 -3.887680 -12.964293 4.272108 20.637020 0.014603 9.039959 6.288834 0.498053 0.063780 -0.044314 -0.000000 0.000000 0.000000 0.000000 0.000000 0.000000 0.000000 
1.936405 16.611269 -2.028504 -151.437295 84.651670 -132.254336 8.437718 -3.258749 3.156874 0.554849 -3.736787 -1.727894 -8.142890 -3.663936 2.396515 10.013280 -7.481700 -5.680258 -4.264926 -0.327365 0.349011 0.000000 0.000000 0.000000 0.324938 6.834742 2.760181 -30.665353 -9.643530 4.637225 -1.640359 -67.816859 0.025658 -9.918533 0.316529 -0.014429 -0.021598 0.140836 0.000000 0.000000 0.000000 0.000000 0.000000 0.000000 0.000000 19.469662 -7.406111 0.639696 64.446273 -3.191881 -12.839594 4.273978 20.389729 0.014529 8.958848 6.277018 0.492651 0.063364 -0.044640 -0.000000 0.000000 0.000000 0.000000 0.000000 0.000000 0.000000 
2.117543 16.621229 -2.042036 -151.161140 84.036484 -131.976423 8.917916 -3.215531 3.291557 0.648800 -3.708457 -1.730317 -8.139774 -3.641405 2.345287 10.006682 -7.136373 -5.579064 -4.306415 -0.330343 0.372396 0.000000 0.000000 0.000000 0.190262 6.807761 2.759266 -31.767938 -9.249043 5.347584 -1.718230 -67.208852 0.024537 -9.910729 0.314920 -0.014784 -0.028495 0.134130 0.000000 0.000000 0.000000 0.000000 0.000000 0.000000 0.000000 19.550945 -7.095186 0.649186 64.292786 -2.470605 -12.661903 4.273667 20.138509 0.014424 8.873707 6.262368 0.486848 0.062815 -0.044901 -0.000000 0.000000 0.000000 0.000000 0.000000 0.000000 0.000000 
2.295823 16.635015 -2.054126 -151.383443 83.394486 -132.193120 9.339407 -3.162845 3.416573 0.729762 -3.668035 -1.733439 -8.136244 -3.607009 2.294599 10.025469 -6.781827 -5.459939 -4.346837 -0.333368 0.400710 0.000000 0.000000 0.000000 0.086452 6.757641 2.752757 -32.895165 -8.898692 6.146145 -1.798547 -66.524564 0.023364 -9.910786 0.328588 -0.016543 -0.034849 0.127101 0.000000 0.000000 0.000000 0.000000 0.000000 0.000000 0.000000 19.655751 -6.778593 0.656382 64.162986 -1.733266 -12.458221 4.271562 19.890016 0.014287 8.792811 6.239355 0.480645 0.062108 -0.045127 -0.000000 0.000000 0.000000 0.000000 0.000000 0.000000 0.000000 
2.471064 16.652568 -2.064131 -152.076355 82.742188 -132.876064 9.675398 -3.101855 3.533189 0.792279 -3.615516 -1.736499 -8.132196 -3.560661 2.244663 10.073984 -6.427999 -5.325990 -4.385545 -0.336383 0.433166 0.000000 0.000000 0.000000 0.027391 6.675133 2.740746 -34.045600 -8.570574 7.022208 -1.879914 -65.774051 0.022136 -9.925598 0.358485 -0.019709 -0.040456 0.119701 0.000000 0.000000 0.000000 0.000000 0.000000 0.000000 0.000000 19.789381 -6.465251 0.662836 64.053526 -0.965970 -12.205836 4.267000 19.634129 0.014153 8.705308 6.223471 0.474642 0.061297 -0.045424 -0.000000 0.000000 0.000000 0.000000 0.000000 0.000000 0.000000 
2.643405 16.673882 -2.072485 -153.109421 82.078902 -133.887351 9.933020 -3.033599 3.632657 0.838153 -3.552963 -1.741712 -8.127693 -3.504450 2.194281 10.143912 -6.066820 -5.177793 -4.421695 -0.339344 0.469752 0.000000 0.000000 0.000000 -0.007009 6.564509 2.726373 -35.191208 -8.253222 7.975217 -1.961229 -64.975851 0.020833 -9.954068 0.405981 -0.024581 -0.045419 0.111903 0.000000 0.000000 0.000000 0.000000 0.000000 0.000000 0.000000 19.938222 -6.144740 0.669514 63.967053 -0.175650 -11.935132 4.260549 19.373451 0.014031 8.619294 6.210464 0.469039 0.060373 -0.045845 -0.000000 0.000000 0.000000 0.000000 0.000000 0.000000 0.000000 
2.812879 16.698978 -2.079384 -154.427471 81.409789 -135.169094 10.107408 -2.960120 3.714130 0.866852 -3.482301 -1.749282 -8.121978 -3.440283 2.143219 10.230562 -5.698988 -5.018411 -4.454616 -0.342189 0.509650 0.000000 0.000000 0.000000 -0.022680 6.428176 2.711303 -36.322487 -7.934993 8.993921 -2.041851 -64.140018 0.019452 -9.997311 0.469902 -0.030959 -0.049753 0.103733 0.000000 0.000000 0.000000 0.000000 0.000000 0.000000 0.000000 20.095732 -5.816400 0.677541 63.900690 0.644758 -11.648356 4.252248 19.102025 0.013940 8.532895 6.207451 0.464137 0.059369 -0.046471 -0.000000 0.000000 0.000000 0.000000 0.000000 0.000000 0.000000 
2.979563 16.727964 -2.085304 -155.964991 80.735082 -136.652698 10.202934 -2.883555 3.774995 0.879775 -3.406047 -1.760772 -8.114073 -3.370841 2.088261 10.325073 -5.315592 -4.847138 -4.483894 -0.344914 0.553121 0.000000 0.000000 0.000000 -0.032079 6.260912 2.698102 -37.429596 -7.590101 10.062909 -2.120843 -63.283837 0.017993 -10.054690 0.549073 -0.038744 -0.053524 0.095213 0.000000 0.000000 0.000000 0.000000 0.000000 0.000000 0.000000 20.249092 -5.469769 0.688686 63.853540 1.488406 -11.367919 4.242416 18.822356 0.013889 8.453208 6.212182 0.460236 0.058280 -0.047353 -0.000000 0.000000 0.000000 0.000000 0.000000 0.000000 0.000000 
3.143501 16.760852 -2.090763 -157.670900 80.056361 -138.288470 10.221846 -2.806465 3.818990 0.878178 -3.326589 -1.774388 -8.101750 -3.298332 2.033604 10.420783 -4.927285 -4.672601 -4.508300 -0.347356 0.597709 0.000000 0.000000 0.000000 -0.042578 6.085349 2.686929 -38.512284 -7.240703 11.169566 -2.199442 -62.395461 0.016479 -10.123713 0.638382 -0.047634 -0.056838 0.086534 0.000000 0.000000 0.000000 0.000000 0.000000 0.000000 0.000000 20.389985 -5.114820 0.702259 63.816337 2.377295 -11.070776 4.231496 18.525425 0.013900 8.372904 6.236308 0.457734 0.057179 -0.048538 -0.000000 0.000000 0.000000 0.000000 0.000000 0.000000 0.000000 
3.304862 16.797587 -2.096445 -159.481560 79.371144 -140.013258 10.174656 -2.730505 3.846752 0.864786 -3.245996 -1.790517 -8.083230 -3.224911 1.978291 10.508090 -4.531502 -4.496370 -4.527227 -0.349469 0.643002 0.000000 0.000000 0.000000 -0.065664 5.904789 2.678912 -39.569120 -6.877845 12.296570 -2.277760 -61.478206 0.014922 -10.201479 0.734139 -0.057229 -0.059797 0.077802 0.000000 0.000000 0.000000 0.000000 0.000000 0.000000 0.000000 20.505031 -4.747887 0.718813 63.785377 3.308563 -10.763707 4.220125 18.217077 0.013974 8.297698 6.277221 0.456736 0.056082 -0.050034 -0.000000 0.000000 0.000000 0.000000 0.000000 0.000000 0.000000 
3.463768 16.838020 -2.102938 -161.339761 78.678504 -141.774696 10.071343 -2.656588 3.862261 0.841991 -3.165361 -1.809593 -8.057020 -3.151873 1.918586 10.578724 -4.119660 -4.316292 -4.540402 -0.351264 0.689601 0.000000 0.000000 0.000000 -0.108209 5.712485 2.675313 -40.602443 -6.480636 13.420240 -2.355581 -60.536942 0.013342 -10.285548 0.833029 -0.067329 -0.062463 0.069105 0.000000 0.000000 0.000000 0.000000 0.000000 0.000000 0.000000 20.581845 -4.359055 0.739489 63.758410 4.266017 -10.461849 4.208756 17.912914 0.014108 8.238764 6.328235 0.457338 0.054963 -0.051829 -0.000000 0.000000 0.000000 0.000000 0.000000 0.000000 0.000000 
3.620423 16.881832 -2.110776 -163.189051 77.977731 -143.521306 9.922075 -2.584888 3.870605 0.812348 -3.085006 -1.829057 -8.021210 -3.079242 1.860712 10.627653 -3.710261 -4.142052 -4.546842 -0.352588 0.734760 0.000000 0.000000 0.000000 -0.175352 5.534598 2.674300 -41.617360 -6.083609 14.530048 -2.434622 -59.549111 0.011766 -10.371345 0.929541 -0.077431 -0.064959 0.060633 0.000000 0.000000 0.000000 0.000000 0.000000 0.000000 0.000000 20.615013 -3.966219 0.762265 63.724757 5.268593 -10.125852 4.198293 17.617024 0.014307 8.190380 6.394382 0.459541 0.053899 -0.053888 -0.000000 0.000000 0.000000 0.000000 0.000000 0.000000 0.000000 
3.774932 16.928589 -2.120309 -164.981196 77.270133 -145.213768 9.736328 -2.514306 3.877364 0.777713 -3.003950 -1.849515 -7.975303 -3.006271 1.798876 10.650101 -3.291345 -3.967843 -4.546720 -0.353512 0.780097 0.000000 0.000000 0.000000 -0.268270 5.354681 2.676705 -42.618432 -5.657817 15.599823 -2.514236 -58.520226 0.010202 -10.457978 1.022698 -0.087237 -0.067294 0.052404 0.000000 0.000000 0.000000 0.000000 0.000000 0.000000 0.000000 20.595913 -3.555682 0.788462 63.684062 6.285144 -9.775332 4.189002 17.358350 0.014558 8.168183 6.463515 0.463446 0.052825 -0.056161 -0.000000 0.000000 0.000000 0.000000 0.000000 0.000000 0.000000 
3.927577 16.977716 -2.131732 -166.677149 76.558001 -146.819629 9.521802 -2.443320 3.888455 0.739686 -2.920717 -1.868095 -7.918777 -2.931104 1.739572 10.645823 -2.883746 -3.802716 -4.539670 -0.353935 0.823022 0.000000 0.000000 0.000000 -0.386566 5.196222 2.680150 -43.608953 -5.239948 16.622907 -2.595909 -57.426827 0.008673 -10.542146 1.109609 -0.096647 -0.069568 0.044531 0.000000 0.000000 0.000000 0.000000 0.000000 0.000000 0.000000 20.526489 -3.147531 0.815781 63.625377 7.328467 -9.365594 4.181527 17.150546 0.014858 8.166235 6.538002 0.468851 0.051805 -0.058578 -0.000000 0.000000 0.000000 0.000000 0.000000 0.000000 0.000000 
4.078503 17.028550 -2.145094 -168.248362 75.845177 -148.318282 9.283988 -2.369721 3.910153 0.699163 -2.833057 -1.882220 -7.851971 -2.851154 1.687905 10.616651 -2.504074 -3.653530 -4.525853 -0.353807 0.861537 0.000000 0.000000 0.000000 -0.527114 5.077433 2.682638 -44.590740 -4.859732 17.594477 -2.680697 -56.250365 0.007188 -10.621341 1.189029 -0.105458 -0.071871 0.037065 0.000000 0.000000 0.000000 0.000000 0.000000 0.000000 0.000000 20.411706 -2.757340 0.842373 63.539025 8.404329 -8.858178 4.176307 17.011342 0.015201 8.180677 6.618619 0.475659 0.050879 -0.061061 -0.000000 0.000000 0.000000 0.000000 0.000000 0.000000 0.000000 
4.228010 17.080383 -2.160249 -169.682919 75.135975 -149.703790 9.026533 -2.290813 3.943707 0.656244 -2.738448 -1.894362 -7.776657 -2.764236 1.634171 10.564093 -2.132241 -3.508255 -4.506344 -0.353329 0.899055 0.000000 0.000000 0.000000 -0.685523 4.962617 2.685552 -45.560844 -4.465411 18.488417 -2.766361 -55.012812 0.005725 -10.698771 1.267412 -0.114173 -0.074111 0.029863 0.000000 0.000000 0.000000 0.000000 0.000000 0.000000 0.000000 20.250756 -2.363238 0.870671 63.428187 9.460498 -8.295378 4.172548 16.981950 0.015564 8.230569 6.685735 0.483666 0.049902 -0.063549 -0.000000 0.000000 0.000000 0.000000 0.000000 0.000000 0.000000 
4.376316 17.132404 -2.176963 -170.976131 74.435735 -150.975128 8.750377 -2.204335 3.992632 0.610788 -2.634562 -1.902047 -7.694071 -2.667603 1.585041 10.493262 -1.788694 -3.375199 -4.481629 -0.352461 0.933176 0.000000 0.000000 0.000000 -0.856577 4.872668 2.686723 -46.515910 -4.092386 19.307036 -2.853721 -53.699122 0.004277 -10.773018 1.346569 -0.122989 -0.076369 0.022937 0.000000 0.000000 0.000000 0.000000 0.000000 0.000000 0.000000 20.054571 -1.985141 0.898715 63.281379 10.508960 -7.634807 4.170041 17.074128 0.015942 8.304757 6.743906 0.492472 0.048922 -0.065978 -0.000000 0.000000 0.000000 0.000000 0.000000 0.000000 0.000000 
4.523645 17.183914 -2.194990 -172.133014 73.749635 -152.139450 8.455133 -2.108007 4.056387 0.562139 -2.519216 -1.907133 -7.606305 -2.559248 1.534288 10.407984 -1.462080 -3.246624 -4.452812 -0.351365 0.966096 0.000000 0.000000 0.000000 -1.035203 4.782087 2.686831 -47.450233 -3.704342 20.030978 -2.940748 -52.330533 0.002814 -10.846999 1.434471 -0.132813 -0.078565 0.016157 0.000000 0.000000 0.000000 0.000000 0.000000 0.000000 0.000000 19.827671 -1.610700 0.928506 63.096830 11.516301 -6.903289 4.167482 17.313216 0.016319 8.409744 6.782167 0.501880 0.047839 -0.068318 -0.000000 0.000000 0.000000 0.000000 0.000000 0.000000 0.000000 
